<svg width="38" height="34" viewBox="0 0 38 34" fill="none" xmlns="http://www.w3.org/2000/svg">
<path d="M1 6L6.1423 12.1284M15 1L15.1423 8.12836M29.0391 5.88959L24.6778 11.5299M36.9038 18.5049L29.969 20.1609M35.1138 33.2628L28.6746 30.2017M23.6177 12.5014C25.0208 13.5825 26.1702 14.9582 26.9846 16.5311C27.7989 18.104 28.2585 19.8358 28.3307 21.6041C28.4029 23.3725 28.0859 25.1343 27.4023 26.7649C26.7187 28.3955 25.6851 29.8553 24.3745 31.041L24.0698 30.7042C28.7439 26.4208 29.0815 19.152 24.8119 14.4326C20.5253 9.69449 13.2183 9.32035 8.49119 13.5969C7.4593 14.5305 6.63562 15.6085 6.02305 16.7727L5.51621 16.5105C6.32635 14.9391 7.47205 13.5657 8.8723 12.4872C10.2725 11.4088 11.8932 10.6516 13.6198 10.2692C15.3463 9.8868 17.1367 9.88859 18.8643 10.2743C20.5918 10.66 22.2145 11.4203 23.6177 12.5014Z" stroke="#FF3F00" stroke-linecap="round"/>
</svg>
