<svg width="66" height="83" viewBox="0 0 66 83" fill="none" xmlns="http://www.w3.org/2000/svg">
<g clip-path="url(#clip0_127_555)">
<path d="M20.682 80.4984C24.1479 81.8939 27.9074 82.7224 31.8553 82.8603C37.0115 83.0444 42.1385 82.0103 46.8208 79.8419C41.374 77.7006 36.4414 74.5693 32.2314 70.6758C29.5024 75.0482 25.466 78.5015 20.682 80.4984Z" fill="#FF9100"/>
<path d="M32.2306 70.6771C22.6206 61.7832 16.7908 48.9105 17.2836 34.7917C17.2995 34.3329 17.3238 33.8748 17.3521 33.4168C13.0842 32.3095 8.59891 32.3564 4.35508 33.5529C1.78973 38.0496 0.241602 43.209 0.0486667 48.7352C-0.448999 62.9983 8.17644 75.4604 20.6815 80.4997C25.4654 78.5028 29.5014 75.0531 32.2306 70.6771Z" fill="#FFC400"/>
<path d="M32.2311 70.6766C34.4654 67.0988 35.8201 62.9039 35.9777 58.3846C36.3925 46.4965 28.4061 36.27 17.3523 33.4163C17.324 33.8743 17.3001 34.3326 17.2841 34.7912C16.7913 48.9102 22.6211 61.7827 32.2311 70.6766Z" fill="#FF9100"/>
<path d="M34.7416 0C28.4461 5.04702 23.4751 11.7015 20.4674 19.3674C18.7052 23.861 17.6525 28.6017 17.3472 33.4194C28.401 36.2728 36.3876 46.4996 35.9726 58.3877C35.815 62.9068 34.4562 67.0975 32.226 70.6797C36.4767 74.6167 41.4245 77.7253 46.8151 79.8457C57.7476 74.7889 65.5041 63.9074 65.9534 51.037C66.2442 42.6981 63.0426 35.266 58.5183 28.9928C53.7405 22.3579 34.7413 0 34.7413 0" fill="#DD2C00"/>
</g>
<defs>
<clipPath id="clip0_127_555">
<rect width="66" height="83" fill="white"/>
</clipPath>
</defs>
</svg>
