<svg width="107" height="107" viewBox="0 0 107 107" fill="none" xmlns="http://www.w3.org/2000/svg">
<g clip-path="url(#clip0_128_567)">
<path d="M21.2557 0H28.56V3.05433H24.31V6.10867H28.56V9.163H21.2557V0ZM30.0192 0H37.3263V2.65767H33.0763V3.1875H37.3263V9.29617H30.0192V6.50817H34.2692V5.9755H30.0192V0ZM38.7883 0H46.0898V2.65767H41.8398V3.1875H46.0898V9.29617H38.7883V6.50817H43.0383V5.9755H38.7883V0Z" fill="#2965F1"/>
<path fill-rule="evenodd" clip-rule="evenodd" d="M33.9745 68L14.2998 62.5373L8.5 13.3648H59.5L53.703 62.5317L33.9745 68ZM19.9665 35.6235L20.5077 41.6528H41.4092L40.7093 49.4728L33.983 51.2918H33.9773L27.2623 49.4785L26.8317 44.6703H20.7768L21.6212 54.1393L33.9745 57.5677L46.3477 54.1393L47.855 37.2413L48.0023 35.6235L49.0903 23.4147H18.8813L19.431 29.4468H42.483L41.9333 35.6235H19.9665Z" fill="#2965F1"/>
</g>
<g clip-path="url(#clip1_128_567)">
<path d="M73.0028 52.6C63.9361 52.6 58.2695 57.1333 56.0028 66.2C59.4028 61.6667 63.3695 59.9667 67.9028 61.1C70.4896 61.746 72.337 63.6217 74.3855 65.7013C77.7203 69.0843 81.5765 73 90.0028 73C99.0695 73 104.736 68.4667 107.003 59.4C103.603 63.9333 99.6361 65.6333 95.1028 64.5C92.516 63.854 90.6686 61.9783 88.6201 59.8987C85.2881 56.5157 81.432 52.6 73.0028 52.6ZM56.0028 73C46.9361 73 41.2695 77.5333 39.0028 86.6C42.4028 82.0667 46.3695 80.3667 50.9028 81.5C53.4896 82.146 55.337 84.0217 57.3855 86.1013C60.7203 89.4843 64.5765 93.4 73.0028 93.4C82.0695 93.4 87.7361 88.8667 90.0028 79.8C86.6028 84.3333 82.6361 86.0333 78.1028 84.9C75.516 84.254 73.6686 82.3783 71.6201 80.2987C68.2881 76.9157 64.432 73 56.0028 73Z" fill="#06B6D4"/>
</g>
<defs>
<clipPath id="clip0_128_567">
<rect width="68" height="68" fill="white"/>
</clipPath>
<clipPath id="clip1_128_567">
<rect width="68" height="68" fill="white" transform="translate(39 39)"/>
</clipPath>
</defs>
</svg>
