<svg width="120" height="140" viewBox="0 0 120 140" fill="none" xmlns="http://www.w3.org/2000/svg">
<g clip-path="url(#clip0_128_566)">
<path d="M104.062 46H67.9375C59.1355 46 52 53.1355 52 61.9375V98.0625C52 106.865 59.1355 114 67.9375 114H104.062C112.865 114 120 106.865 120 98.0625V61.9375C120 53.1355 112.865 46 104.062 46Z" fill="#242938"/>
<path d="M86.0002 85.0339C88.7372 85.0339 90.9557 82.8151 90.9557 80.0784C90.9557 77.3416 88.7372 75.1229 86.0002 75.1229C83.2632 75.1229 81.0447 77.3416 81.0447 80.0784C81.0447 82.8151 83.2635 85.0339 86.0002 85.0339Z" fill="#00D8FF"/>
<path d="M86.0005 70.0027C92.6539 70.0027 98.8347 70.9573 103.495 72.562C109.11 74.4949 112.562 77.425 112.562 80.0784C112.562 82.8432 108.904 85.9561 102.874 87.9539C98.3152 89.4642 92.3163 90.2526 86.0005 90.2526C79.5251 90.2526 73.3932 89.5126 68.783 87.9371C62.9504 85.9436 59.4375 82.7907 59.4375 80.0784C59.4375 77.4465 62.7339 74.539 68.2701 72.609C72.9477 70.978 79.281 70.0027 85.9995 70.0027H86.0005Z" stroke="#00D8FF" stroke-width="0.48732"/>
<path d="M77.2294 75.0695C80.5534 69.3059 84.4679 64.4285 88.1861 61.1932C92.6656 57.2946 96.9289 55.7678 99.2271 57.093C101.622 58.4743 102.491 63.1992 101.209 69.4207C100.241 74.1241 97.9266 79.7144 94.7712 85.1858C91.5362 90.7953 87.832 95.7375 84.1646 98.943C79.5238 103 75.0371 104.468 72.6877 103.113C70.4078 101.799 69.5361 97.4903 70.6299 91.7303C71.554 86.8632 73.8732 80.8896 77.2283 75.0695H77.2294Z" stroke="#00D8FF" stroke-width="0.48732"/>
<path d="M77.2376 85.2004C73.9042 79.4433 71.6347 73.6149 70.6875 68.7779C69.5472 62.9498 70.3534 58.4939 72.6497 57.1647C75.0427 55.7792 79.5698 57.3863 84.3197 61.6039C87.9109 64.7924 91.5986 69.5888 94.763 75.0549C98.0073 80.659 100.439 86.3367 101.385 91.1148C102.582 97.1615 101.613 101.782 99.2656 103.14C96.9881 104.459 92.8202 103.063 88.376 99.2384C84.6211 96.0074 80.6038 91.0149 77.2376 85.2004Z" stroke="#00D8FF" stroke-width="0.48732"/>
</g>
<path d="M18 9C15.6131 9 13.3239 9.94821 11.636 11.636C9.94821 13.3239 9 15.6131 9 18V54C9 56.3869 9.94821 58.6761 11.636 60.364C13.3239 62.0518 15.6131 63 18 63H54C56.3869 63 58.6761 62.0518 60.364 60.364C62.0518 58.6761 63 56.3869 63 54V18C63 15.6131 62.0518 13.3239 60.364 11.636C58.6761 9.94821 56.3869 9 54 9H18ZM40.002 48.165C42.162 49.905 44.318 50.763 46.47 50.739C47.79 50.739 48.802 50.497 49.506 50.013C49.8338 49.8002 50.1005 49.5057 50.2799 49.1586C50.4592 48.8114 50.5451 48.4235 50.529 48.033C50.5336 47.6071 50.4446 47.1854 50.2683 46.7977C50.0921 46.4099 49.8329 46.0656 49.509 45.789C48.805 45.175 47.473 44.559 45.513 43.941C43.159 43.261 41.344 42.381 40.068 41.301C38.816 40.221 38.178 38.714 38.154 36.78C38.154 34.954 38.946 33.425 40.53 32.193C42.07 30.961 44.04 30.345 46.44 30.345C49.784 30.345 52.467 31.159 54.489 32.787L52.179 36.384C51.3472 35.7373 50.393 35.2658 49.374 34.998C48.4583 34.6912 47.5015 34.5243 46.536 34.503C45.396 34.503 44.483 34.712 43.797 35.13C43.117 35.55 42.777 36.1 42.777 36.78C42.777 37.528 43.194 38.166 44.028 38.694C44.868 39.202 46.298 39.763 48.318 40.377C50.76 41.103 52.498 42.071 53.532 43.281C54.566 44.491 55.083 46.031 55.083 47.901C55.083 49.815 54.346 51.465 52.872 52.851C51.42 54.215 49.308 54.93 46.536 54.996C42.906 54.996 39.87 53.907 37.428 51.729L40.002 48.165ZM23.412 50.079C24.116 50.519 24.963 50.739 25.953 50.739C26.987 50.739 27.845 50.442 28.527 49.848C29.207 49.232 29.548 48.165 29.55 46.647V30.741H34.005V47.505C33.939 50.101 33.191 51.971 31.761 53.115C30.9785 53.7765 30.0688 54.2707 29.088 54.567C28.1785 54.8439 27.2337 54.9884 26.283 54.996C24.633 54.996 23.17 54.71 21.894 54.138C20.53 53.524 19.386 52.435 18.462 50.871L21.564 48.33C22.134 49.1 22.75 49.683 23.412 50.079Z" fill="#FEFB48"/>
<path d="M80.6862 95.93L57.3503 137.659C56.8681 138.521 55.6303 138.526 55.1416 137.669L31.3426 95.9349C30.8092 94.9997 31.6075 93.8683 32.6674 94.0572L56.0284 98.2322C56.1775 98.2594 56.3303 98.2594 56.4793 98.2322L79.3512 94.0637C80.4067 93.8715 81.2098 94.9936 80.6862 95.93Z" fill="url(#paint0_linear_128_566)"/>
<path d="M67.1556 88.5809L49.8875 91.9642C49.7497 91.9911 49.6247 92.0631 49.5322 92.1687C49.4397 92.2744 49.3849 92.4078 49.3765 92.548L48.3133 110.491C48.3076 110.59 48.3249 110.688 48.3638 110.779C48.4027 110.869 48.4621 110.949 48.5374 111.013C48.6127 111.077 48.7017 111.122 48.7975 111.145C48.8933 111.168 48.9932 111.169 49.0893 111.147L53.8976 110.036C54.0012 110.012 54.1091 110.015 54.2114 110.043C54.3137 110.072 54.4071 110.126 54.4831 110.2C54.5591 110.275 54.6153 110.367 54.6464 110.468C54.6776 110.57 54.6827 110.678 54.6614 110.782L53.2326 117.777C53.2108 117.885 53.2173 117.996 53.2514 118.1C53.2856 118.205 53.3463 118.299 53.4276 118.373C53.5089 118.446 53.6079 118.498 53.7151 118.522C53.8223 118.546 53.9339 118.542 54.039 118.51L57.0079 117.607C57.4682 117.467 57.911 117.872 57.8143 118.343L55.5434 129.331C55.402 130.018 56.316 130.393 56.6971 129.804L56.951 129.411L71.0235 101.327C71.26 100.855 70.8525 100.319 70.3369 100.419L65.3868 101.375C65.2803 101.395 65.1702 101.388 65.0672 101.354C64.9642 101.32 64.8717 101.26 64.7985 101.18C64.7254 101.1 64.6741 101.002 64.6495 100.896C64.625 100.791 64.6281 100.68 64.6584 100.576L67.8881 89.3792C67.9184 89.2747 67.9214 89.1641 67.8965 89.058C67.8717 88.952 67.82 88.8542 67.7464 88.774C67.6728 88.6938 67.5798 88.6339 67.4763 88.6001C67.3728 88.5662 67.2624 88.5597 67.1556 88.5809Z" fill="url(#paint1_linear_128_566)"/>
<defs>
<linearGradient id="paint0_linear_128_566" x1="30.761" y1="92.5661" x2="59.8053" y2="132.011" gradientUnits="userSpaceOnUse">
<stop stop-color="#41D1FF"/>
<stop offset="1" stop-color="#BD34FE"/>
</linearGradient>
<linearGradient id="paint1_linear_128_566" x1="54.6878" y1="89.499" x2="59.9418" y2="125.541" gradientUnits="userSpaceOnUse">
<stop stop-color="#FFEA83"/>
<stop offset="0.083" stop-color="#FFDD35"/>
<stop offset="1" stop-color="#FFA800"/>
</linearGradient>
<clipPath id="clip0_128_566">
<rect width="68" height="68" fill="white" transform="translate(52 46)"/>
</clipPath>
</defs>
</svg>
