<svg width="68" height="68" viewBox="0 0 68 68" fill="none" xmlns="http://www.w3.org/2000/svg">
<g clip-path="url(#clip0_127_533)">
<mask id="mask0_127_533" style="mask-type:luminance" maskUnits="userSpaceOnUse" x="0" y="0" width="68" height="68">
<path d="M0 0L68 0V68H0L0 0Z" fill="white"/>
</mask>
<g mask="url(#mask0_127_533)">
<path d="M14.3933 0L17.459 0V3.02883H20.264V0L23.3296 0V9.16867H20.264V6.10017H17.459V9.16867H14.3961L14.3933 0ZM27.3586 3.04017H24.6613V0L33.1245 0V3.04017H30.4243V9.16867H27.3586V3.04017ZM34.4675 0L37.6635 0L39.6298 3.2215L41.5933 0L44.7893 0V9.16867H41.7378V4.624L39.6298 7.88517H39.576L37.4651 4.62683V9.16867H34.4675V0ZM46.3136 0L49.3821 0V6.13983H53.6888V9.1715L46.3136 9.1715V0Z" fill="#E34F26"/>
<path fill-rule="evenodd" clip-rule="evenodd" d="M14.297 62.5373L8.5 13.3648L59.5 13.3648L53.7002 62.5317L33.9717 68L14.297 62.5373ZM26.0185 35.6207L25.4688 29.444H48.5463L49.0847 23.4147H18.8813L20.5077 41.6528H41.4092L40.7093 49.4728L33.983 51.2918H33.9773L27.2623 49.4785L26.8317 44.6703H20.774L21.6183 54.1393L33.9717 57.5677L46.3448 54.1393L47.8522 37.2413L47.9995 35.6235L26.0185 35.6207Z" fill="#E34F26"/>
</g>
</g>
<defs>
<clipPath id="clip0_127_533">
<rect width="68" height="68" fill="white"/>
</clipPath>
</defs>
</svg>
