<svg width="387" height="351" viewBox="0 0 387 351" fill="none" xmlns="http://www.w3.org/2000/svg">
<mask id="path-1-inside-1_35_58" fill="white">
<path d="M367 0C378.046 5.15406e-06 387 8.95431 387 20V249C387 260.046 378.046 269 367 269H60C48.9543 269 40 277.954 40 289V331C40 342.046 31.0457 351 20 351C8.95431 351 2.97989e-07 342.046 0 331V20C3.12485e-06 8.95431 8.95431 4.79167e-07 20 0H367Z"/>
</mask>
<path d="M367 0C378.046 5.15406e-06 387 8.95431 387 20V249C387 260.046 378.046 269 367 269H60C48.9543 269 40 277.954 40 289V331C40 342.046 31.0457 351 20 351C8.95431 351 2.97989e-07 342.046 0 331V20C3.12485e-06 8.95431 8.95431 4.79167e-07 20 0H367Z" fill="#F0F0F0"/>
<path d="M367 0V-1V0ZM387 20H388H387ZM0 331H-1H0ZM0 20H-1H0ZM20 0V-1V0ZM367 0V1C377.493 1 386 9.50659 386 20H387H388C388 8.40202 378.598 -0.999995 367 -1V0ZM387 20H386V249H387H388V20H387ZM367 269V268H60V269V270H367V269ZM40 289H39V331H40H41V289H40ZM20 351V350C9.50659 350 1 341.493 1 331H0H-1C-1 342.598 8.40203 352 20 352V351ZM0 331H1V20H0H-1V331H0ZM0 20H1C1 9.50659 9.50659 1 20 1V0V-1C8.40202 -1 -0.999997 8.40202 -1 20H0ZM20 0V1H367V0V-1H20V0ZM40 331H39C39 341.493 30.4934 350 20 350V351V352C31.598 352 41 342.598 41 331H40ZM60 269V268C48.402 268 39 277.402 39 289H40H41C41 278.507 49.5066 270 60 270V269ZM387 249H386C386 259.493 377.493 268 367 268V269V270C378.598 270 388 260.598 388 249H387Z" fill="black" fill-opacity="0.1" mask="url(#path-1-inside-1_35_58)"/>
</svg>
